<svg width="244" height="209" viewBox="0 0 244 209" fill="none" xmlns="http://www.w3.org/2000/svg">
<path fill-rule="evenodd" clip-rule="evenodd" d="M63.1912 137.661C66.5982 138.868 70.2637 138.311 72.4255 136.259C73.2055 135.518 74.1478 133.802 74.3401 132.772C74.7522 130.564 75.2169 131.937 63.8945 101.912L53.3641 73.9879L128.144 117.162C182.456 148.519 203.17 160.427 203.823 160.668C209.996 162.945 215.827 159.288 215.198 153.533C214.98 151.535 214.09 149.745 212.45 148.007L211.544 147.046L136.506 103.68L61.4691 60.3138L90.8101 55.4945C119.357 50.8056 120.181 50.6582 121.259 50.0518C122.412 49.4031 123.631 48.285 124.132 47.4175C124.292 47.1398 124.551 46.4556 124.706 45.8971C125.867 41.7253 122.869 36.7608 118.134 35.0145C116.044 34.2433 114.441 34.1099 111.869 34.4923C110.629 34.6767 92.5192 37.6976 71.6239 41.2055C44.1092 45.8246 33.3677 47.6989 32.6729 48.002C30.5435 48.9313 29.0401 50.6963 28.5635 52.8265C28.1047 54.8771 28.1693 55.0967 33.0934 68.2615C35.6115 74.9933 42.0178 92.132 47.3297 106.348C53.8196 123.715 57.1954 132.527 57.6205 133.21C58.8265 135.147 61.0022 136.886 63.1912 137.661Z" fill="black"/>
</svg>
