<svg width="24" height="24" viewBox="0 0 24 24" fill="none" xmlns="http://www.w3.org/2000/svg">
<path fill-rule="evenodd" clip-rule="evenodd" d="M6.12916 0.0322833C5.0439 0.174371 4.03073 0.570443 3.12789 1.20552C2.62605 1.55858 1.71452 2.46281 1.28661 3.03205C0.689331 3.82673 0.291945 4.72208 0.084775 5.73999C0.00572995 6.1285 0 6.55181 0 12.0027C0 17.4535 0.00572995 17.8768 0.084775 18.2653C0.384094 19.7361 1.0265 20.8572 2.24459 22.0343C3.11502 22.8755 3.90167 23.3671 4.89534 23.6909C5.8932 24.016 5.52164 23.9999 12 23.9999C17.4521 23.9999 17.8755 23.9941 18.2641 23.9151C19.6521 23.6328 20.6874 23.0747 21.7631 22.0291C22.9788 20.8474 23.6168 19.7315 23.9152 18.2653C23.9943 17.8768 24 17.4535 24 12.0027C24 6.55181 23.9943 6.1285 23.9152 5.73999C23.6168 4.27384 22.9788 3.15794 21.7631 1.97621C20.7143 0.956701 19.751 0.425773 18.377 0.10976C17.946 0.0106367 17.8788 0.00946278 12.1879 0.000916826C9.02348 -0.00382571 6.29706 0.010308 6.12916 0.0322833ZM17.8295 1.92916C18.5512 2.05551 19.2704 2.35706 19.8252 2.76586C20.2087 3.04849 20.8937 3.73169 21.2005 4.13758C21.5294 4.57267 21.8821 5.30518 22.0144 5.82799L22.1213 6.25059V12.0027V17.7548L22.0144 18.1745C21.8851 18.6821 21.5682 19.3666 21.2663 19.7904C20.9993 20.165 20.2197 20.9487 19.8236 21.2406C19.2705 21.6482 18.5504 21.95 17.8295 22.0762C17.243 22.1789 6.75696 22.1789 6.17054 22.0762C5.44368 21.9489 4.71701 21.6432 4.17736 21.2376C3.77946 20.9386 3.0952 20.2582 2.79978 19.8678C2.47083 19.433 2.11801 18.7006 1.98561 18.1774L1.87867 17.7548V12.0027V6.25059L1.98557 5.8308C2.11472 5.32368 2.43156 4.63916 2.73346 4.21496C2.99577 3.84645 3.78077 3.05844 4.18004 2.7629C4.71086 2.36998 5.45303 2.05523 6.14485 1.92977C6.67346 1.83388 17.2821 1.83332 17.8295 1.92916ZM12.638 7.4103C12.3726 7.48341 12.0768 7.79623 12.0055 8.07923C11.8816 8.57142 11.9549 8.68402 13.2371 9.97183L14.3241 11.0636L10.755 11.0646C7.40431 11.0656 7.1744 11.0708 6.99762 11.1511C6.37893 11.4321 6.23887 12.2088 6.7238 12.6693C7.02106 12.9516 6.87579 12.9418 10.7652 12.9418H14.3241L13.2371 14.0335C12.6393 14.634 12.1189 15.1886 12.0807 15.2661C11.8894 15.6544 11.9528 16.0432 12.2571 16.3473C12.5702 16.6604 12.957 16.7167 13.362 16.5083C13.4524 16.4617 14.4069 15.5399 15.4829 14.4597C17.527 12.4077 17.5416 12.3904 17.5416 12.0027C17.5416 11.6149 17.527 11.5976 15.4829 9.54566C14.4069 8.46545 13.4491 7.54159 13.3546 7.49257C13.132 7.3772 12.8684 7.34691 12.638 7.4103Z" fill="currentColor"/>
</svg>
