<svg width="21" height="22" viewBox="0 0 21 22" fill="none" xmlns="http://www.w3.org/2000/svg">
<path fill-rule="evenodd" clip-rule="evenodd" d="M5.70366 0.0363272C5.4196 0.137718 5.22373 0.312772 5.09846 0.577194L5.02428 0.733756L5.01703 1.35921L5.00979 1.98464L3.79828 1.99401C2.75208 2.00208 2.5628 2.00894 2.41099 2.04419C1.45922 2.26523 0.725767 2.83394 0.314463 3.66984C0.198588 3.90532 0.13158 4.09966 0.0602597 4.40695L0.0097988 4.62438L0.00213465 11.808C-0.00346691 17.0898 0.00161899 19.0629 0.0214002 19.2611C0.0945252 19.9942 0.357728 20.554 0.875838 21.0784C1.2551 21.4623 1.6039 21.6828 2.07469 21.8364C2.54569 21.9901 1.97625 21.9798 10.0047 21.9798C16.5429 21.9798 17.3081 21.976 17.5065 21.9427C18.6667 21.7475 19.6215 20.8677 19.9077 19.7298C19.9385 19.6074 19.9753 19.3912 19.9894 19.2494C20.0077 19.0665 20.0129 16.9028 20.0074 11.808L19.9996 4.62438L19.9492 4.40695C19.8775 4.09772 19.8105 3.9045 19.6929 3.66797C19.2494 2.77558 18.4226 2.17043 17.4458 2.02319C17.2628 1.99563 16.9705 1.98792 16.1058 1.9878L14.9997 1.98766L14.9925 1.36071L14.9852 0.733756L14.9106 0.576186C14.8068 0.357186 14.6538 0.20128 14.4378 0.0945226C14.266 0.00960854 14.2539 0.00719444 14.0016 0.00719444C13.7535 0.00719444 13.7348 0.0107335 13.5792 0.0873506C13.3999 0.175663 13.2331 0.327468 13.1388 0.488436C13.0243 0.683952 13.0047 0.821108 13.0047 1.43008V1.98766H10.0047H7.00474V1.43008C7.00474 0.821108 6.98522 0.683952 6.87066 0.488436C6.77435 0.324069 6.59897 0.164624 6.42445 0.0827803C6.28798 0.0187491 6.23613 0.00768661 6.04381 0.00152255C5.8751 -0.00389151 5.79267 0.00454601 5.70366 0.0363272ZM5.01307 4.61266C5.02765 5.35249 5.04134 5.40705 5.27508 5.65694C5.82183 6.2414 6.76781 6.00459 6.96881 5.23293C6.99621 5.12772 7.00474 4.96275 7.00474 4.53743V3.97985H10.0047H13.0047V4.53743C13.0047 4.96275 13.0133 5.12772 13.0407 5.23293C13.1419 5.62164 13.4442 5.89872 13.8465 5.97168C14.2953 6.05306 14.7702 5.77598 14.9453 5.33069C14.9756 5.25332 14.9859 5.10829 14.996 4.61266L15.0087 3.99157L16.0047 3.98512C16.5818 3.9814 17.0645 3.98845 17.1523 4.00193C17.4797 4.05218 17.8106 4.30882 17.9302 4.60523L17.9852 4.74157L17.9917 6.36461L17.9982 7.98766H10.0047H2.01131L2.01781 6.36461L2.02428 4.74157L2.07928 4.60523C2.19253 4.32452 2.52703 4.05445 2.82335 4.0045C2.88659 3.99384 3.4024 3.98657 3.96959 3.98833L5.00084 3.99157L5.01307 4.61266ZM17.9913 14.6151L17.9852 19.2504L17.9051 19.4131C17.7706 19.6862 17.5404 19.8782 17.2596 19.9513C17.1348 19.9838 16.3597 19.9877 10.0047 19.9877C3.64983 19.9877 2.87466 19.9838 2.7499 19.9513C2.46905 19.8782 2.23887 19.6862 2.10443 19.4131L2.02428 19.2504L2.01818 14.6151L2.01209 9.97984H10.0047H17.9974L17.9913 14.6151Z" fill="currentColor"/>
</svg>
