<svg width="64" height="64" viewBox="0 0 64 64" fill="none" xmlns="http://www.w3.org/2000/svg">
<path fill-rule="evenodd" clip-rule="evenodd" d="M41.9623 0.18375C40.5799 0.399036 38.5106 1.08815 37.2023 1.76902C32.723 4.10016 29.5757 8.71819 29 13.804C28.9231 14.4835 28.8723 19.2886 28.8717 25.9345L28.8707 36.9397L27.9848 37.8115C26.0862 39.6798 25.035 41.8708 24.8029 44.4431L24.7135 45.4344L24.0984 45.7284C23.2699 46.1244 22.8408 46.779 22.7702 47.7545C22.7282 48.3356 22.7734 48.5975 22.9867 49.0065L23.2561 49.5237L23.0014 50.0502C22.7228 50.6256 22.6687 51.5249 22.8791 52.0836C23.0672 52.5838 23.845 53.3451 24.3323 53.506L24.7463 53.6426V54.6957V55.7486H23.7513H22.7562L22.6152 55.2248C22.4384 54.5679 21.8225 53.9407 21.1784 53.7619C20.9067 53.6864 20.1466 53.6244 19.4892 53.624C18.3242 53.6233 18.2849 53.6137 17.9341 53.2474C17.7361 53.0407 17.374 52.816 17.1295 52.748C16.8685 52.6755 14.4528 52.6242 11.2756 52.6238C5.43681 52.6231 5.37169 52.6297 4.75878 53.2946C4.4732 53.6042 4.38859 53.6233 3.29025 53.6233H2.12468V52.6231V51.6229H1.06234H0V56.7488V61.8746H1.06234H2.12468V60.8745V59.8743H3.26276C4.3116 59.8743 4.41908 59.8976 4.63418 60.171C5.18297 60.8688 5.23721 60.8745 11.3922 60.874C16.9569 60.8736 17.0679 60.8687 17.4974 60.6069C17.738 60.4603 18.0083 60.2355 18.0982 60.1073C18.2404 59.9043 18.4364 59.8743 19.621 59.8743C20.3688 59.8743 21.1389 59.8145 21.3324 59.7417C21.9018 59.5269 22.4952 58.8654 22.6422 58.2814L22.7762 57.7489H23.7613H24.7463V60.8745V64H44.3731H64L63.9603 53.717C63.9208 43.4743 63.9195 43.4304 63.6403 42.5195C63.0588 40.6216 61.6607 38.4227 60.3854 37.4001L59.8766 36.9922L59.8326 25.1481C59.7924 14.3596 59.7689 13.2204 59.5678 12.3663C58.8344 9.2509 57.4277 6.66972 55.3077 4.54898C51.8078 1.04815 46.8423 -0.576128 41.9623 0.18375ZM47.9303 2.54152C50.2172 3.21589 52.0154 4.26331 53.7098 5.90796C56.3955 8.5149 57.7413 11.7233 57.7413 15.519C57.7413 16.9009 57.7241 17.0112 57.5226 16.9221C57.4024 16.8688 56.9527 16.7363 56.5234 16.6274L55.7429 16.4295L55.7422 14.7791C55.7412 12.2315 55.3947 11.089 54.2395 9.82462C53.7177 9.25353 52.3772 8.36563 52.0368 8.36563C51.9257 8.36563 51.3673 9.84575 51.3673 10.1401C51.3673 10.2307 51.5471 10.3846 51.767 10.4819C52.3985 10.7615 53.1799 11.6277 53.41 12.3033C53.7884 13.4145 53.8591 13.3667 51.836 13.3643C50.7897 13.363 49.7125 13.2895 49.2247 13.1861C46.5859 12.6266 44.029 10.8353 42.6663 8.59129C42.4239 8.1921 42.1744 7.86554 42.112 7.86554C41.9324 7.86554 40.3689 8.66018 40.3689 8.75144C40.3689 9.03136 41.817 10.9726 42.7007 11.8775L43.7495 12.9514L43.1073 13.1589C41.872 13.558 40.5284 13.3935 39.4546 12.7117C38.6338 12.1906 38.0975 11.4443 37.5505 10.0619L37.0889 8.89534L36.1668 9.27103C35.6596 9.47756 35.2447 9.69448 35.2447 9.75299C35.2447 9.8115 35.4134 10.2842 35.6196 10.8035C35.8259 11.3229 35.9946 11.7717 35.9946 11.8011C35.9946 11.8305 35.7527 11.9616 35.457 12.0924C34.7891 12.3879 34.059 13.0199 33.6661 13.6425C33.3231 14.186 32.995 15.3352 32.995 15.9932C32.995 16.4399 32.9914 16.4429 32.2139 16.6339C31.7843 16.7395 31.3272 16.8722 31.1981 16.9286C30.9727 17.027 30.9658 16.9561 31.0267 15.1675C31.0764 13.709 31.1611 13.0342 31.4161 12.0626C32.6841 7.23444 36.672 3.43817 41.6187 2.35036C43.2511 1.9913 46.3866 2.08632 47.9303 2.54152ZM2.69847 6.43555C1.73999 6.78961 0.878993 7.60375 0.392816 8.61567L0.0624906 9.30329V19.6175C0.0624906 29.924 0.0627406 29.9321 0.332575 30.5164C0.696645 31.3044 1.54077 32.195 2.30715 32.5996L2.93706 32.9323L13.2046 32.9663C23.3019 32.9998 23.4835 32.9962 24.1589 32.7434C25.1218 32.3829 25.9034 31.651 26.3977 30.6468L26.8085 29.8121V19.6827C26.8085 10.2087 26.7937 9.51107 26.581 8.90072C26.2939 8.07733 25.4089 7.08129 24.5723 6.63971L23.9339 6.30278L13.5605 6.2789C4.78478 6.25865 3.11178 6.28278 2.69847 6.43555ZM23.5713 8.47877C23.853 8.60679 24.2186 8.90097 24.3837 9.13238L24.6838 9.55333L24.7173 19.0401L24.7509 28.5268L23.1179 26.9903L21.4848 25.4539L21.9546 24.9725L22.4244 24.4913L21.6836 23.7426L20.943 22.994L20.434 23.4936L19.9251 23.9933L19.3253 23.3842L18.7257 22.7752L18.9804 22.2758C19.1205 22.0012 19.3007 21.5157 19.3808 21.197C19.5266 20.6183 19.5273 20.6177 20.0744 20.6177H20.6219V21.1178V21.6179H21.6874H22.7528L22.7185 19.5863L22.6841 17.5547L21.653 17.5184L20.6219 17.482V18.0498V18.6174H20.0734C19.5521 18.6174 19.5211 18.597 19.4477 18.2059C19.4053 17.9796 19.1714 17.3786 18.9279 16.8704L18.4851 15.9463L18.8633 15.568L19.2415 15.1897L19.6225 15.5548L20.0036 15.92L20.7179 15.2055L21.4323 14.4909L19.9651 13.0233L18.498 11.5557L17.7836 12.2703L17.0693 12.9848L17.4344 13.366L17.7994 13.7472L17.4059 14.1407L17.0123 14.5344L16.2863 14.1495C15.8869 13.9377 15.3212 13.7009 15.029 13.6231C14.5046 13.4836 14.4978 13.4747 14.4978 12.924V12.3663H14.9977H15.4977V11.3661V10.366H13.4355H11.3733V11.3661V12.3663H11.8732H12.3731V12.9265C12.3731 13.4352 12.3416 13.494 12.0294 13.5651C11.8403 13.6083 11.305 13.815 10.8397 14.0247L9.99375 14.4058L9.68242 14.1131L9.37096 13.8205L9.70991 13.4666L10.0487 13.1127L9.37171 12.4269C8.9994 12.0497 8.6312 11.7412 8.55359 11.7412C8.47598 11.7412 8.31062 11.8537 8.18627 11.9912C8.06191 12.1288 7.91243 12.2413 7.85407 12.2413C7.73696 12.2413 3.83692 8.52503 3.77031 8.35012C3.74669 8.28799 7.91543 8.24186 13.3939 8.24336C22.5492 8.24598 23.086 8.25836 23.5713 8.47877ZM5.27908 12.7371L6.37142 13.7962L5.90911 14.2697L5.44681 14.7433L6.12483 15.4302C6.49777 15.8079 6.85872 16.1169 6.92696 16.1169C6.99507 16.1169 7.25341 15.919 7.501 15.6772L7.95118 15.2375L8.23501 15.5397L8.51884 15.8419L8.16927 16.3702C7.97705 16.6608 7.69472 17.2713 7.54187 17.7267C7.26578 18.5497 7.26091 18.5551 6.76411 18.593L6.26406 18.631L6.22531 18.0929L6.18657 17.5547L5.15547 17.5184L4.12438 17.482V19.55V21.6179H5.18672H6.24906V21.1178V20.6177H6.80048C7.34952 20.6177 7.35227 20.6199 7.43938 21.1355C7.4875 21.4203 7.71084 22.0064 7.93568 22.4379L8.34449 23.2225L7.94593 23.6088L7.54749 23.9951L7.18529 23.6169L6.8231 23.2389L6.09758 23.957L5.37219 24.6751L6.83897 26.1461L8.30563 27.6172L9.02564 26.9045L9.74566 26.1918L9.43458 25.8671C9.05476 25.4705 9.05151 25.399 9.39534 25.0327C9.73029 24.6761 9.86489 24.673 10.4329 25.0083C10.6798 25.154 11.2033 25.3724 11.5963 25.4936L12.3106 25.7141L12.3488 26.2914L12.3869 26.8687H11.8801H11.3733V27.8689V28.8691H13.4355H15.4977V27.8689V26.8687H14.9909H14.4841L14.5222 26.2908L14.5603 25.7128L15.3307 25.4769C15.7545 25.3471 16.3965 25.0421 16.7576 24.799L17.414 24.3572L17.9548 24.888L18.4956 25.419L18.1588 25.7707L17.8221 26.1224L18.4991 26.8081C18.8714 27.1853 19.2311 27.4939 19.2985 27.4939C19.3658 27.4939 19.5646 27.3588 19.7402 27.1937L20.0595 26.8935L21.9759 28.7464C23.8542 30.5622 23.8867 30.6026 23.6007 30.7657C23.3662 30.8993 21.3954 30.9386 13.5605 30.9658L3.81193 30.9998L3.25051 30.7158C2.94181 30.5596 2.56211 30.2407 2.40689 30.007L2.12468 29.5822V19.6333V9.68422L3.15578 10.6811C3.72294 11.2295 4.67842 12.1546 5.27908 12.7371ZM38.9618 14.791C40.9135 15.7709 43.3116 15.6514 45.1308 14.4835C45.7016 14.1172 45.7416 14.1093 46.0994 14.2945C47.5611 15.0506 49.0549 15.3701 51.5235 15.4547L53.6169 15.5265V20.0461C53.6169 25.1525 53.5907 25.3575 52.7119 27.1154C51.8087 28.9222 50.2453 30.2548 48.0865 31.0577L47.4929 31.2785V33.0783C47.4929 35.107 47.4035 35.4512 46.6925 36.1626C46.0754 36.7797 45.5846 37.0108 44.726 37.0887C43.7445 37.1777 42.9869 36.9437 42.3006 36.3395C41.3851 35.5333 41.3148 35.3202 41.2438 33.1368L41.1813 31.2161L40.4022 30.9342C39.2896 30.5316 38.3437 29.9225 37.4547 29.0361C36.5429 28.1268 35.9768 27.2322 35.517 25.973L35.1822 25.0559L35.1433 20.3676C35.1221 17.7891 35.1365 15.508 35.1755 15.2985C35.2898 14.6848 35.8517 14.1255 36.6121 13.8686L37.292 13.6388L37.7994 14.0505C38.0784 14.2769 38.6014 14.6101 38.9618 14.791ZM15.2207 15.9133C16.029 16.326 16.7624 17.0621 17.1433 17.8431C17.482 18.5373 17.5949 19.9164 17.3786 20.7193L17.2355 21.2513L16.8977 20.9976C16.712 20.858 15.4384 19.6549 14.0675 18.3238L11.575 15.9038L12.1303 15.7002C12.9799 15.3887 14.3832 15.4855 15.2207 15.9133ZM39.8065 16.6313C38.965 17.109 39.0914 18.2025 40.0264 18.5327C40.3037 18.6307 40.8606 18.4237 41.0734 18.1437C41.3057 17.8378 41.2809 17.1895 41.0251 16.8813C40.7605 16.5625 40.1487 16.437 39.8065 16.6313ZM48.0553 16.6313C47.4717 16.9625 47.3221 17.5678 47.693 18.0974C47.9733 18.4977 48.4027 18.6357 48.8656 18.4743C49.8103 18.1449 49.673 16.7237 48.6802 16.5535C48.474 16.5183 48.1927 16.5531 48.0553 16.6313ZM13.0079 20.1406L15.8896 22.914L15.4146 23.2008C13.4417 24.3918 10.6534 23.454 9.6503 21.2623C9.21524 20.3116 9.20224 18.9807 9.61868 18.0235C9.77578 17.6626 9.95425 17.3671 10.0152 17.3671C10.0762 17.3671 11.4229 18.6152 13.0079 20.1406ZM32.995 20.6826V22.7478L32.6513 22.6689C31.6576 22.4406 30.9953 21.6077 30.9953 20.5861C30.9953 19.6919 31.9263 18.6174 32.7011 18.6174H32.995V20.6826ZM43.3685 18.8726C43.3685 19.5396 42.9247 21.159 42.4824 22.1064C42.2123 22.6845 42.0061 23.1704 42.0238 23.186C42.0975 23.251 44.8692 24.6184 44.9271 24.6184C45.0052 24.6184 45.8991 22.8554 45.8449 22.8081C45.8232 22.7892 45.5619 22.6508 45.2641 22.5005C44.8541 22.2937 44.7424 22.1761 44.8041 22.0163C45.0227 21.4513 45.3666 19.7387 45.3673 19.2112L45.3682 18.6174H44.3683C43.445 18.6174 43.3685 18.6369 43.3685 18.8726ZM56.9772 18.9823C57.4599 19.3261 57.7413 19.9632 57.7413 20.7118C57.7413 21.6804 57.1059 22.431 56.0853 22.668L55.7416 22.7478V20.6662V18.5846L56.1803 18.6559C56.4215 18.695 56.7801 18.8419 56.9772 18.9823ZM31.8702 24.5672C32.1108 24.6581 32.4865 24.7349 32.705 24.7379C33.0874 24.7431 33.1078 24.7704 33.2481 25.4623C33.5663 27.0299 34.5783 29.0056 35.6985 30.2459C36.3249 30.9396 37.3815 31.7436 38.4092 32.3087L39.2441 32.7677V33.485V34.2024L36.0087 34.6639C34.0144 34.9484 32.4322 35.2414 31.8843 35.4279L30.9953 35.7304V29.9734C30.9953 24.5387 31.0076 24.2218 31.2141 24.3093C31.3344 24.3603 31.6296 24.4765 31.8702 24.5672ZM57.7413 29.9796V35.7159L56.8352 35.4114C56.2925 35.229 54.6508 34.9216 52.7421 34.6447L49.555 34.1825L49.5177 33.4689L49.4804 32.7551L50.1426 32.4224C52.7987 31.0881 54.6313 28.7898 55.3947 25.8358C55.6701 24.7699 55.6861 24.7433 56.0531 24.7379C56.3364 24.7338 57.3951 24.4285 57.7101 24.2601C57.7272 24.2508 57.7413 26.8246 57.7413 29.9796ZM41.2107 25.8148L40.3653 26.2489L40.5651 26.6357C40.9086 27.2999 41.7041 28.0584 42.4574 28.4399C43.1065 28.7686 43.3032 28.8063 44.3683 28.8063C45.7116 28.8064 46.3329 28.596 47.1769 27.8557C47.6692 27.424 48.3677 26.5416 48.3677 26.3515C48.3677 26.2939 47.9652 26.044 47.473 25.7961C46.6322 25.3725 46.5707 25.3592 46.4525 25.5758C46.1999 26.0384 45.4698 26.6153 44.9649 26.7514C44.0555 26.9963 43.038 26.6195 42.5284 25.8491C42.3535 25.5848 42.1758 25.3712 42.1333 25.3746C42.0909 25.378 41.6757 25.5762 41.2107 25.8148ZM40.0437 36.9224C40.6043 37.7367 41.402 38.3819 42.3171 38.7614C42.6892 38.9156 42.9935 39.0827 42.9935 39.1327C42.9935 39.2856 42.2053 39.8987 41.779 40.0775C41.2267 40.3089 40.6533 40.2845 40.0335 40.0031C39.2995 39.6697 38.9109 39.0267 38.7448 37.8706C38.6707 37.3549 38.5838 36.81 38.5518 36.66C38.4937 36.3872 38.5962 36.3382 39.3796 36.2641C39.4907 36.2536 39.782 36.5424 40.0437 36.9224ZM50.2012 36.4125C50.3062 36.5175 49.8425 38.8279 49.6504 39.1569C49.2025 39.9241 48.2169 40.3628 47.3194 40.1944C46.9163 40.1187 45.7431 39.3361 45.7431 39.1429C45.7431 39.0926 46.1068 38.8929 46.5514 38.6992C47.5146 38.2794 48.3736 37.5559 48.8265 36.7827C49.1504 36.2301 49.1659 36.2211 49.6635 36.3007C49.9424 36.3453 50.1843 36.3956 50.2012 36.4125ZM36.5516 37.1517C36.5892 37.3753 36.6781 37.9519 36.7491 38.4332C37.0504 40.4774 38.3484 41.8736 40.2792 42.2307C41.1116 42.3846 42.154 42.236 42.8958 41.8574L43.3685 41.6161V51.7454V61.8746H38.1818H32.995L32.9955 57.7802L32.9959 53.6858L33.5596 53.4538C34.2386 53.1745 34.7904 52.5404 34.9971 51.8022C35.1711 51.1805 35.0976 50.6219 34.7594 49.9953C34.5324 49.5747 34.5321 49.5452 34.7493 49.1166C35.3124 48.0051 35.1593 46.9866 34.3057 46.1655C34.0089 45.8801 33.5926 45.6083 33.3806 45.5618C33.0485 45.4888 32.9952 45.422 32.9958 45.0807C32.9967 44.5332 33.2284 43.7473 33.5027 43.3613L33.732 43.0385L33.0132 42.3268L32.2944 41.6152L32.0292 41.8995C31.486 42.4816 31.0819 43.5085 31.0208 44.4621L30.9625 45.3719H28.9166H26.871V44.7668C26.871 43.8816 27.2965 42.363 27.8329 41.3337C28.6922 39.6849 30.55 38.0898 32.3915 37.4195C33.0019 37.1974 35.3163 36.7748 36.0202 36.757C36.4484 36.7463 36.4884 36.7759 36.5516 37.1517ZM54.1645 36.9402C54.86 37.0473 55.7104 37.223 56.0541 37.3306C58.7763 38.1832 61.0411 40.5758 61.676 43.27C61.8189 43.8764 61.8624 44.935 61.8638 47.841L61.8657 51.6229H59.8035H57.7413V47.752C57.7413 43.4409 57.6867 43.0929 56.8516 42.0799L56.4566 41.601L55.727 42.3233C55.0793 42.9643 55.0176 43.0678 55.1773 43.2444C55.7419 43.8685 55.7416 43.8637 55.7416 53.1192V61.8746H50.5549H45.3682V51.7624V41.6502L46.1493 41.9673C47.8359 42.6518 49.6453 42.2475 50.8637 40.9137C51.5866 40.1226 51.9037 39.3432 52.1145 37.8393C52.2938 36.5618 52.1413 36.6286 54.1645 36.9402ZM48.0553 44.5161C47.2596 44.9514 47.3383 46.0518 48.1881 46.375C48.5577 46.5156 49.2017 46.3069 49.3702 45.9921C49.8625 45.0719 48.9374 44.0334 48.0553 44.5161ZM32.9693 47.8166C33.0419 48.3249 32.6498 48.4853 31.2407 48.524L29.933 48.5599V49.5601V50.5602L31.3004 50.596C32.0524 50.6156 32.7413 50.6929 32.8314 50.7675C33.1049 50.9946 33.0324 51.484 32.7138 51.5618C32.5591 51.5995 30.7515 51.6147 28.6968 51.5954C25.3473 51.564 24.9471 51.5385 24.8276 51.349C24.7254 51.1868 24.7487 51.0773 24.9271 50.8802C25.1348 50.6505 25.3058 50.6227 26.5154 50.6227H27.8708V49.5601V48.4974H26.5371C25.4714 48.4974 25.1575 48.4558 24.9749 48.2905C24.8491 48.1767 24.7463 48.0192 24.7463 47.9404C24.7463 47.5191 25.0091 47.4935 28.9911 47.5267C32.8602 47.5591 32.9332 47.5645 32.9693 47.8166ZM47.7997 50.9297C46.8961 51.8334 48.1548 53.1575 49.1632 52.3639C49.4144 52.1663 49.4926 51.9936 49.4926 51.6357C49.4926 50.7104 48.4525 50.2767 47.7997 50.9297ZM30.9658 57.7802L30.9987 61.8746H28.9349H26.871V59.8118V57.7489H27.8708H28.8707V56.7488V55.7486H27.8708H26.871V54.6828V53.617L28.9019 53.6514L30.9328 53.6858L30.9658 57.7802ZM61.8657 57.7489V61.8746H59.8035H57.7413V57.8323C57.7413 55.609 57.7788 53.7524 57.8247 53.7066C57.8704 53.6608 58.7984 53.6233 59.8869 53.6233H61.8657V57.7489ZM16.4975 56.8113V58.8741H11.3733H6.24906V56.8113V54.7484H11.3733H16.4975V56.8113ZM4.12438 56.7488V57.7489H3.12453H2.12468V56.7488V55.7486H3.12453H4.12438V56.7488ZM20.6219 56.7488V57.7489H19.622H18.6222V56.7488V55.7486H19.622H20.6219V56.7488Z" fill="white"/>
</svg>
