<svg width="419" height="425" viewBox="0 0 419 425" fill="none" xmlns="http://www.w3.org/2000/svg">
<path fill-rule="evenodd" clip-rule="evenodd" d="M170.345 1.94015C162.797 4.55982 158.649 7.93659 155.85 13.7406C153.155 19.3266 153.264 20.7885 157.228 32.1333C159.342 38.1856 160.08 42.0517 160.476 49.1492L160.989 58.3336L158.457 58.9081C141.712 62.7051 128.962 67.6262 117.201 74.8327L109.603 79.4878L106.544 76.8238C93.2397 65.2379 87.1393 57.6962 82.0737 46.5748C78.6389 39.0331 78.4003 38.7495 73.6476 36.542C69.5835 34.6546 67.9343 34.3567 63.9061 34.7778C49.6977 36.2654 35.7401 50.4852 34.2657 64.9737C33.8672 68.8939 34.1809 70.6341 36.0198 74.7095C38.1864 79.5091 38.5019 79.7848 45.6808 83.1492C49.7632 85.0623 54.8699 87.8601 57.0287 89.3672C60.7047 91.9319 69.8038 101.029 75.7434 108.078L78.3583 111.181L73.769 118.888C66.6644 130.817 61.8129 143.75 58.0696 160.735L57.5033 163.304L48.4488 162.784C41.4516 162.382 37.6402 161.633 31.6735 159.489C20.4733 155.463 19.0522 155.355 13.498 158.112C2.36955 163.634 -2.92156 180.127 1.63453 195.089C3.99342 202.837 7.68776 207.644 13.498 210.526C19.0636 213.289 20.4602 213.18 31.8185 209.098C37.9863 206.882 41.6081 206.172 48.5956 205.809L57.5059 205.346L58.0705 207.909C61.8103 224.882 66.6653 237.823 73.769 249.751L78.3583 257.457L75.732 260.56C64.3099 274.056 56.8749 280.244 45.9107 285.382C38.4757 288.866 38.196 289.108 36.0198 293.929C34.1591 298.051 33.8654 299.724 34.2806 303.81C35.7515 318.259 49.3883 332.052 63.9157 333.784C68.2585 334.302 69.5276 334.07 73.7175 331.99C78.3837 329.674 78.6634 329.324 82.862 320.568C87.8446 310.177 90.8459 306.292 101.685 296.212L109.498 288.945L111.736 290.457C124.768 299.259 140.071 305.573 158.457 309.732L160.989 310.305L160.476 319.489C160.08 326.586 159.342 330.453 157.228 336.505C153.259 347.866 153.152 349.307 155.871 354.941C161.315 366.229 177.574 371.596 192.325 366.975C199.963 364.582 204.702 360.835 207.544 354.941C210.267 349.296 210.16 347.879 206.136 336.358C203.951 330.102 203.251 326.428 202.894 319.34L202.437 310.302L204.963 309.718C215.098 307.375 218.891 306.289 225.625 303.798C229.832 302.243 233.273 300.7 233.273 300.368C233.273 300.037 232.045 297.104 230.544 293.851C228.429 289.267 227.495 288.064 226.392 288.507C222.742 289.972 209.811 294.146 207.271 294.679C204.65 295.229 204.431 295.099 204.431 292.994C204.431 291.134 207.602 272.908 209.243 265.334C209.614 263.621 209.077 263.365 203.036 262.377C199.399 261.782 196.264 261.456 196.07 261.653C195.478 262.254 192.413 278.153 190.917 288.392C187.601 311.063 188.175 327.048 192.819 341.423C194.034 345.185 194.815 348.824 194.556 349.51C193.694 351.789 186.675 354.531 181.707 354.531C176.74 354.531 169.721 351.789 168.859 349.51C168.599 348.824 169.385 345.185 170.606 341.423C175.186 327.31 175.77 310.768 172.483 288.289C170.999 278.135 167.934 262.252 167.344 261.653C167.15 261.456 164.015 261.782 160.379 262.377C154.338 263.365 153.801 263.621 154.171 265.334C155.786 272.783 158.984 291.118 158.984 292.924C158.984 295.771 158.241 295.735 147.851 292.379C119.336 283.169 96.2908 263.473 82.6173 236.624C78.3417 228.23 72.4589 212.05 72.4589 208.688C72.4589 207.873 73.2918 207.369 74.6378 207.369C76.4181 207.369 94.4939 210.612 101.838 212.25C103.527 212.626 103.779 212.081 104.754 205.954C105.34 202.265 105.661 199.085 105.467 198.888C104.874 198.287 89.2002 195.178 79.1056 193.66C56.7551 190.298 40.9963 190.879 26.8246 195.59C23.1163 196.823 19.5285 197.615 18.8521 197.352C16.6059 196.478 13.9018 189.358 13.9018 184.319C13.9018 179.28 16.6059 172.16 18.8521 171.286C19.5285 171.023 23.1163 171.816 26.8246 173.048C40.9963 177.759 56.7551 178.34 79.1056 174.978C89.2002 173.46 104.874 170.351 105.467 169.75C105.661 169.553 105.34 166.373 104.754 162.684C103.779 156.557 103.527 156.012 101.838 156.388C94.4939 158.026 76.4181 161.27 74.6378 161.27C71.8297 161.27 71.8664 160.511 75.1875 149.977C84.367 120.862 103.774 97.486 130.142 83.7839C138.454 79.4648 154.423 73.5038 157.683 73.5038C158.486 73.5038 158.984 74.3486 158.984 75.7139C158.984 77.5197 155.786 95.8548 154.171 103.304C153.801 105.017 154.338 105.273 160.379 106.262C164.015 106.857 167.15 107.182 167.344 106.985C167.937 106.384 171.002 90.4851 172.498 80.2458C175.813 57.5748 175.24 41.5899 170.595 27.2149C169.381 23.4534 168.599 19.8142 168.859 19.128C169.721 16.8497 176.74 14.1068 181.707 14.1068C186.675 14.1068 193.694 16.8497 194.556 19.128C194.815 19.8142 194.034 23.4534 192.819 27.2149C188.175 41.5899 187.601 57.5748 190.917 80.2458C192.413 90.4851 195.478 106.384 196.07 106.985C196.264 107.182 199.399 106.857 203.036 106.262C209.077 105.273 209.614 105.017 209.243 103.304C207.629 95.8548 204.431 77.5197 204.431 75.7139C204.431 72.8673 205.174 72.9036 215.564 76.2591C244.124 85.4834 267.102 105.123 280.797 132.014C285.073 140.408 290.956 156.588 290.956 159.95C290.956 160.765 290.123 161.27 288.777 161.27C286.996 161.27 268.921 158.026 261.577 156.388C259.888 156.012 259.635 156.557 258.661 162.684C258.075 166.373 257.754 169.553 257.948 169.75C258.54 170.351 274.214 173.46 284.309 174.978C306.659 178.34 322.418 177.759 336.59 173.048C340.298 171.816 343.886 171.023 344.563 171.286C346.809 172.16 349.513 179.28 349.513 184.319C349.513 189.358 346.809 196.478 344.563 197.352C343.886 197.615 340.298 196.823 336.59 195.59C322.418 190.879 306.659 190.298 284.309 193.66C274.214 195.178 258.54 198.287 257.948 198.888C257.659 199.181 259.503 212.696 259.83 212.684C259.885 212.683 265.829 211.494 273.039 210.042C288.355 206.961 290.956 206.781 290.956 208.808C290.956 210.015 286.298 224.877 284.425 229.645C283.986 230.765 285.165 231.708 289.69 233.856C292.898 235.378 295.784 236.624 296.103 236.624C296.423 236.624 297.937 233.134 299.468 228.867C301.92 222.034 303.135 217.692 305.333 207.909L305.909 205.346L314.819 205.809C321.806 206.172 325.428 206.882 331.596 209.098C342.954 213.18 344.351 213.289 349.917 210.526C361.045 205.004 366.336 188.511 361.78 173.549C359.421 165.801 355.727 160.995 349.917 158.112C344.362 155.355 342.941 155.463 331.741 159.489C325.774 161.633 321.963 162.382 314.966 162.784L305.911 163.304L305.345 160.735C301.603 143.755 296.752 130.822 289.648 118.888L285.061 111.181L287.218 108.521C291.76 102.921 302.918 91.8007 306.533 89.2706C308.611 87.8167 313.613 85.08 317.648 83.1891C324.047 80.19 325.236 79.2662 326.947 75.9621C330.036 69.9994 329.741 62.1927 326.148 54.7893C320.956 44.0925 309.934 35.87 299.294 34.7557C295.256 34.3328 293.766 34.6289 289.647 36.6732C284.954 39.0021 284.64 39.3842 281.004 47.2104C276.371 57.1847 271.865 63.0668 261.7 72.4178L253.858 79.6323L251.212 77.8735C237.839 68.9808 223.559 63.1262 204.958 58.9081L202.425 58.3336L202.938 49.1492C203.334 42.0517 204.073 38.1856 206.187 32.1333C210.156 20.7725 210.262 19.3311 207.544 13.6972C201.989 2.17951 185.066 -3.16977 170.345 1.94015ZM71.141 56.3363C76.0309 65.9116 81.3107 72.713 90.5784 81.3779L98.2415 88.5419L92.7713 94.0986L87.301 99.6544L79.9761 91.6376C71.0929 81.9169 65.3945 77.3566 55.7535 72.2547L48.4243 68.377L48.7075 64.9559C49.203 58.9613 54.6348 52.2157 60.7798 49.9631C66.2895 47.9436 67.1145 48.4507 71.141 56.3363ZM305.723 51.9968C310.683 55.1076 314.406 60.4586 314.738 64.9559L314.99 68.377L307.789 72.1882C297.685 77.5348 293.001 81.2493 283.969 91.0756L276.098 99.6385L270.705 94.1686L265.313 88.6988L274.942 79.1066C284.773 69.3123 290.332 61.6829 293.779 53.2512C295.676 48.6102 295.777 48.5234 298.735 49.0101C300.396 49.284 303.54 50.6271 305.723 51.9968ZM223.659 114.556C219.369 115.927 212.053 123.612 210.738 128.128C208.317 136.44 210.024 143.067 216.2 149.332C225.145 158.405 237.489 158.212 245.77 148.869C253.897 139.7 253.642 128.679 245.101 120.016C238.951 113.779 231.793 111.956 223.659 114.556ZM139.756 121.648C135.466 123.02 128.15 130.704 126.835 135.22C124.414 143.532 126.121 150.159 132.297 156.424C141.243 165.497 153.586 165.304 161.867 155.961C169.994 146.792 169.739 135.771 161.198 127.108C155.048 120.871 147.89 119.048 139.756 121.648ZM235.497 129.758C239.833 134.155 236.761 141.766 230.651 141.766C227.058 141.766 223.659 138.318 223.659 134.674C223.659 131.029 227.058 127.582 230.651 127.582C232.353 127.582 234.145 128.386 235.497 129.758ZM151.594 136.85C155.93 141.247 152.858 148.858 146.748 148.858C145.045 148.858 143.254 148.054 141.902 146.682C140.549 145.31 139.756 143.493 139.756 141.766C139.756 140.039 140.549 138.222 141.902 136.85C143.254 135.478 145.045 134.674 146.748 134.674C148.45 134.674 150.242 135.478 151.594 136.85ZM187.491 163.972C181.961 165.381 174.09 170.106 170.269 174.311C168.306 176.471 165.456 180.903 163.935 184.16C161.43 189.522 161.169 190.881 161.169 198.55C161.169 206.542 161.352 207.394 164.433 213.716C166.466 217.89 169.208 221.829 171.705 224.163C176.593 228.733 184.932 232.788 191.103 233.594L195.691 234.193V226.987C195.691 220.909 195.467 219.78 194.263 219.78C187.598 219.78 177.793 211.966 175.778 205.05C173.357 196.738 175.064 190.111 181.241 183.846C185.767 179.254 190.194 177.227 195.691 177.227C205.774 177.227 216.667 187.523 216.667 197.055C216.667 198.277 217.78 198.503 223.771 198.503H230.876L230.304 193.849C229.492 187.218 224.5 177.354 219.678 172.844C213.56 167.124 205.85 163.83 197.657 163.434C193.932 163.254 189.357 163.496 187.491 163.972ZM195.439 198.312C193.175 200.645 191.321 202.943 191.321 203.42C191.321 203.896 197.778 210.827 205.67 218.821L220.019 233.355L218.343 236.528C216.487 240.041 216.14 246.326 217.637 249.315C218.17 250.38 222.33 255.08 226.882 259.76L235.158 268.267L233.344 271.284C231.328 274.639 230.889 281.565 232.49 284.776C233.021 285.841 249.569 303.101 269.262 323.13L305.07 359.547L304.003 364.796C301.313 378.032 310.868 389.953 324.167 389.953C330.127 389.953 334.991 387.804 340.334 382.807L344.37 379.033L349.307 384.04L354.242 389.046L352.344 391.096C349.974 393.655 347.765 399.864 347.765 403.964C347.765 411.6 352.486 419.304 359.439 423.014C364.139 425.521 373.03 425.682 377.48 423.342C381.689 421.128 414.744 387.721 417.056 383.343C419.64 378.453 419.649 369.648 417.076 364.726C410.993 353.094 397.24 349.521 386.637 356.819L383.318 359.103L378.456 354.172L373.594 349.24L377.238 345.459C382.05 340.467 384.429 334.964 384.453 328.774C384.508 314.663 371.315 304.567 358.077 308.59L354.64 309.635L318.646 273.222C298.85 253.195 281.794 236.369 280.744 235.831C277.589 234.212 270.751 234.651 267.465 236.683L264.511 238.51L255.64 229.654C250.563 224.587 245.729 220.534 244.338 220.18C240.681 219.249 234.301 220.25 232.324 222.065C230.605 223.643 230.311 223.405 215.963 208.871C207.928 200.731 200.949 194.071 200.456 194.071C199.962 194.071 197.705 195.98 195.439 198.312ZM125.772 213.847C121.483 215.218 114.166 222.902 112.851 227.418C110.43 235.73 112.137 242.357 118.314 248.622C122.84 253.213 127.267 255.241 132.764 255.241C138.261 255.241 142.688 253.213 147.215 248.622C156.057 239.653 156.057 228.276 147.215 219.307C141.064 213.069 133.906 211.246 125.772 213.847ZM137.61 229.049C141.946 233.446 138.874 241.057 132.764 241.057C129.171 241.057 125.772 237.609 125.772 233.964C125.772 230.32 129.171 226.872 132.764 226.872C134.467 226.872 136.258 227.676 137.61 229.049ZM247.935 241.301L255.131 248.638L250.079 253.71L245.027 258.781L237.645 251.254L230.263 243.727L235.015 238.846C237.629 236.161 239.986 233.964 240.254 233.964C240.521 233.964 243.978 237.266 247.935 241.301ZM279.594 263.663L274.826 268.559L279.822 273.627L284.818 278.694L289.634 273.869L294.452 269.042L299.261 273.861L304.07 278.678L299.259 283.609L294.45 288.539L299.503 293.612L304.557 298.685L309.309 293.805L314.061 288.924L319.116 293.997L324.169 299.071L319.359 304.001L314.549 308.931L319.358 313.749L324.167 318.567L328.985 313.741L333.801 308.915L338.81 313.996L343.819 319.077L329.186 333.919L314.554 348.762L280.033 313.754L245.514 278.747L260.141 263.892L274.768 249.035L279.564 253.9L284.361 258.767L279.594 263.663ZM93.0142 274.761L98.2206 280.098L90.3267 287.519C80.7522 296.52 76.2564 302.302 71.2275 312.079L67.4047 319.514L64.0319 319.258C57.3154 318.748 49.1794 310.495 48.6769 303.682L48.4243 300.261L55.5342 296.499C64.9837 291.497 71.8305 286.031 80.0329 276.94C83.7622 272.807 87.037 269.425 87.3106 269.425C87.585 269.425 90.151 271.827 93.0142 274.761ZM368.343 323.907C369.751 325.334 370.488 327.084 370.488 328.997C370.488 331.623 368.343 334.09 348.864 353.86C329.34 373.676 326.959 375.808 324.352 375.808C320.718 375.808 317.175 372.445 317.175 368.997C317.175 366.966 321.013 362.645 339.263 344.134C363.255 319.797 363.871 319.369 368.343 323.907ZM368.523 373.793L363.517 378.871L358.698 374.043L353.878 369.215L358.887 364.08L363.897 358.945L368.713 363.831L373.528 368.716L368.523 373.793ZM403.302 369.119C404.695 370.531 405.448 372.3 405.448 374.16C405.448 376.687 403.612 378.903 389.935 392.887C381.403 401.61 373.311 409.34 371.954 410.064C367.034 412.691 361.749 409.438 361.749 403.783C361.749 401.512 364.206 398.632 378.597 384.033C393.604 368.812 395.759 366.943 398.302 366.943C400.168 366.943 401.9 367.696 403.302 369.119Z" fill="#BF360C"/>
</svg>
